<?xml version="1.0" encoding="UTF-8"?>
<svg id="uuid-7411eb94-787d-4d7d-a4e4-de6b1335a141" xmlns="http://www.w3.org/2000/svg" viewBox="0 0 756.3 756.3" xmlns:bx="https://boxy-svg.com" width="756.3px" height="756.3px"><defs/><title>Docker mark logo - Brandlogos.net</title><path d="M 743.96 326.958 C 725.42 314.478 676.7 309.148 641.28 318.688 C 639.37 283.408 621.18 253.678 587.89 227.738 L 575.57 219.468 L 567.36 231.868 C 551.22 256.368 544.42 289.008 546.83 318.678 C 548.73 336.958 555.09 357.508 567.36 372.418 C 521.26 399.158 478.77 393.088 290.59 393.088 L 0.06 393.088 C -0.79 435.578 6.04 517.318 58.02 583.858 C 63.76 591.208 70.06 598.318 76.89 605.168 C 119.15 647.488 183 678.518 278.48 678.608 C 424.14 678.738 548.94 600.008 624.85 409.638 C 649.83 410.048 715.77 414.118 748.04 351.758 C 748.83 350.708 756.25 335.218 756.25 335.218 L 743.95 326.948 L 743.96 326.958 Z M 189.67 288.098 L 107.97 288.098 L 107.97 369.798 L 189.67 369.798 L 189.67 288.098 Z M 295.22 288.098 L 213.52 288.098 L 213.52 369.798 L 295.22 369.798 L 295.22 288.098 Z M 400.77 288.098 L 319.07 288.098 L 319.07 369.798 L 400.77 369.798 L 400.77 288.098 Z M 506.32 288.098 L 424.62 288.098 L 424.62 369.798 C 424.62 369.798 506.32 369.798 506.32 369.798 L 506.32 288.098 Z M 84.12 288.098 L 2.42 288.098 L 2.42 369.798 L 84.12 369.798 L 84.12 288.098 Z M 189.67 184.908 L 107.97 184.908 L 107.97 266.608 L 189.67 266.608 L 189.67 184.908 Z M 295.22 184.908 L 213.52 184.908 L 213.52 266.608 L 295.22 266.608 L 295.22 184.908 Z M 400.77 184.908 L 319.07 184.908 L 319.07 266.608 L 400.77 266.608 L 400.77 184.908 Z M 400.77 81.708 L 319.07 81.708 L 319.07 163.408 L 400.77 163.408 L 400.77 81.708 Z" style="fill:#1d63ed;"/></svg>