<?xml version="1.0" encoding="iso-8859-1"?>
<!-- Generator: Adobe Illustrator 21.0.0, SVG Export Plug-In . SVG Version: 6.00 Build 0)  -->
<svg xmlns="http://www.w3.org/2000/svg" xmlns:xlink="http://www.w3.org/1999/xlink" version="1.1" id="Capa_1" x="0px" y="0px" viewBox="0 0 512 512" style="enable-background:new 0 0 512 512;" xml:space="preserve" width="512" height="512">
<g>
	<path style="fill:#FF5B5B;" d="M497,0H197c-8.401,0-15,6.599-15,15v240c0,8.399,6.599,15,15,15h45v45c0,6,3.6,11.4,9.3,13.799   c1.8,0.901,3.9,1.201,5.7,1.201c3.9,0,7.8-1.5,10.499-4.501L323.301,270H497c8.401,0,15-6.601,15-15V15C512,6.599,505.401,0,497,0z   "/>
	<path style="fill:#FF193D;" d="M512,15v240c0,8.399-6.599,15-15,15H323.301l-55.801,55.499C264.8,328.5,260.9,330,257,330V0h240   C505.401,0,512,6.599,512,15z"/>
	<path style="fill:#FFF5F5;" d="M272,75c0,8.399-6.599,15-15,15s-15-6.601-15-15c0-8.401,6.599-15,15-15S272,66.599,272,75z"/>
	<path style="fill:#FFF5F5;" d="M272,135c0,8.399-6.599,15-15,15s-15-6.601-15-15c0-8.401,6.599-15,15-15S272,126.599,272,135z"/>
	<path style="fill:#FFF5F5;" d="M272,195c0,8.399-6.599,15-15,15s-15-6.601-15-15c0-8.401,6.599-15,15-15S272,186.599,272,195z"/>
	<path style="fill:#DA90F8;" d="M371.1,392.899l-90-30c-4.501-1.5-9.3-0.899-13.2,1.5L255,373.1l-25.201,16.8   c-40.499-19.2-88.499-67.2-107.699-107.701l25.499-38.099c2.401-3.9,3.001-8.701,1.5-13.2l-30-90c-1.8-6-7.5-10.201-14.099-10.201   H45c-24.901,0-45,20.4-45,45C0,320.9,115.499,459.8,255,499.999C281.4,507.8,308.699,512,336.301,512c24.6,0,45-20.101,45-45v-60   C381.301,400.399,377.1,394.699,371.1,392.899z"/>
	<path style="fill:#B760EA;" d="M381.301,407v60c0,24.899-20.4,45-45,45c-27.601,0-54.901-4.2-81.301-12.001V373.1l12.9-8.701   c3.9-2.399,8.699-2.999,13.2-1.5l90,30C377.1,394.699,381.301,400.399,381.301,407z"/>
	<path style="fill:#EFE2DD;" d="M437,90H317c-8.291,0-15-6.709-15-15s6.709-15,15-15h120c8.291,0,15,6.709,15,15S445.291,90,437,90z   "/>
	<path style="fill:#EFE2DD;" d="M437,150H317c-8.291,0-15-6.709-15-15s6.709-15,15-15h120c8.291,0,15,6.709,15,15   S445.291,150,437,150z"/>
	<path style="fill:#EFE2DD;" d="M437,210H317c-8.291,0-15-6.709-15-15s6.709-15,15-15h120c8.291,0,15,6.709,15,15   S445.291,210,437,210z"/>
	<path style="fill:#EFE2DD;" d="M272,195c0,8.399-6.599,15-15,15v-30C265.401,180,272,186.599,272,195z"/>
	<path style="fill:#EFE2DD;" d="M272,135c0,8.399-6.599,15-15,15v-30C265.401,120,272,126.599,272,135z"/>
	<path style="fill:#EFE2DD;" d="M257,90V60c8.401,0,15,6.599,15,15C272,83.399,265.401,90,257,90z"/>
</g>















</svg>
