<svg id="Layer_1" enable-background="new 0 0 64 64" height="512" viewBox="0 0 64 64" width="512" xmlns="http://www.w3.org/2000/svg" xmlns:xlink="http://www.w3.org/1999/xlink"><linearGradient id="SVGID_1_" gradientUnits="userSpaceOnUse" x1="4.759" x2="59.241" y1="59.241" y2="4.759"><stop offset="0" stop-color="#1a6fb0"/><stop offset="1" stop-color="#3d9ae2"/></linearGradient><linearGradient id="lg1"><stop offset="0" stop-color="#00b6bd"/><stop offset="1" stop-color="#46f8ff"/></linearGradient><linearGradient id="SVGID_2_" gradientUnits="userSpaceOnUse" x1="16.174" x2="53.827" xlink:href="#lg1" y1="70.653" y2="32.999"/><linearGradient id="SVGID_3_" gradientUnits="userSpaceOnUse" x1="11.759" x2="20.241" xlink:href="#lg1" y1="26.241" y2="17.759"/><g><path d="m58 6h-52c-3.309 0-6 2.691-6 6v40c0 3.309 2.691 6 6 6h52c3.309 0 6-2.691 6-6v-40c0-3.309-2.691-6-6-6z" fill="url(#SVGID_1_)"/><path d="m63.414 42.586-16-16c-.781-.781-2.047-.781-2.828 0l-18.586 18.586-6.586-6.586c-.781-.781-2.047-.781-2.828 0l-14.825 14.825c-.375.375-.586.884-.586 1.415 0 .53.211 1.039.587 1.414 1.135 1.135 2.641 1.76 4.238 1.76h12 40c3.309 0 6-2.691 6-6v-8c0-.53-.211-1.039-.586-1.414z" fill="url(#SVGID_2_)"/><circle cx="16" cy="22" fill="url(#SVGID_3_)" r="6"/></g></svg>