<?xml version="1.0" encoding="UTF-8"?>
<svg viewBox="0 0 22 22" xmlns="http://www.w3.org/2000/svg">
  <g id="terminal" transform="matrix(1, 0, 0, 1, -1, -1)">
    <rect height="18" rx="3" width="20" x="2" y="3" style="fill: rgb(21, 91, 159);"/>
    <g fill="#dadde2">
      <path d="m7 17a1 1 0 0 1 -.71-.29 1 1 0 0 1 0-1.42l3.3-3.29-3.3-3.29a1 1 0 1 1 1.42-1.42l4 4a1 1 0 0 1 0 1.42l-4 4a1 1 0 0 1 -.71.29z" style="fill: rgb(255, 255, 255);"/>
      <path d="m17 17h-4a1 1 0 0 1 0-2h4a1 1 0 0 1 0 2z" style="fill: rgb(255, 255, 255);"/>
    </g>
  </g>
</svg>